PathFileType	4	(X/Y/Z)	C:\Users\Basilio\Documents\Thesis Gigler\squatting_fais\c3dfiles\038\SLS_back_pre2\markers_experimental.trc
DataRate	CameraRate	NumFrames	NumMarkers	Units	OrigDataRate	OrigDataStartFrame	OrigNumFrames
200.000000	200.000000	4	63	mm	200.000000	1343	1791
Frame#	Time	FHD			LBHD			RBHD			C7			T10			CLAV			LSHO			LUUPA			LMUPA			LDUPA			LLEP			LMEP			LRAD			LUL			LRFIN			RSHO			RUPA1			RMUPA			RDUPA			RLEP			RMEP			RRAD			RUL			RUFIN			LASI			RASI			USACR			LSACR			RSACR			LTHI1			LTHI2			LTHI3			LTHI4			LLFC			LMFC			LTIB1			LTIB2			LTIB3			LTIB4			LLMAL			LMMAL			LHEE			LMT1			LMT2			LMT5			RTHI			RTHI2			RTHI3			RTHI4			RLFC			RMFC			RTIB1			RTIB2			RTIB3			RTIB4			RLMAL			RMMAL			RHEE			RMT1			RMT2			RMT5			*61			*62			
		X1	Y1	Z1	X2	Y2	Z2	X3	Y3	Z3	X4	Y4	Z4	X5	Y5	Z5	X6	Y6	Z6	X7	Y7	Z7	X8	Y8	Z8	X9	Y9	Z9	X10	Y10	Z10	X11	Y11	Z11	X12	Y12	Z12	X13	Y13	Z13	X14	Y14	Z14	X15	Y15	Z15	X16	Y16	Z16	X17	Y17	Z17	X18	Y18	Z18	X19	Y19	Z19	X20	Y20	Z20	X21	Y21	Z21	X22	Y22	Z22	X23	Y23	Z23	X24	Y24	Z24	X25	Y25	Z25	X26	Y26	Z26	X27	Y27	Z27	X28	Y28	Z28	X29	Y29	Z29	X30	Y30	Z30	X31	Y31	Z31	X32	Y32	Z32	X33	Y33	Z33	X34	Y34	Z34	X35	Y35	Z35	X36	Y36	Z36	X37	Y37	Z37	X38	Y38	Z38	X39	Y39	Z39	X40	Y40	Z40	X41	Y41	Z41	X42	Y42	Z42	X43	Y43	Z43	X44	Y44	Z44	X45	Y45	Z45	X46	Y46	Z46	X47	Y47	Z47	X48	Y48	Z48	X49	Y49	Z49	X50	Y50	Z50	X51	Y51	Z51	X52	Y52	Z52	X53	Y53	Z53	X54	Y54	Z54	X55	Y55	Z55	X56	Y56	Z56	X57	Y57	Z57	X58	Y58	Z58	X59	Y59	Z59	X60	Y60	Z60	X61	Y61	Z61	X62	Y62	Z62	X63	Y63	Z63	

1344	6.715	-164.5915832519532	1761.467895507813	-1087.800659179688	-323.0868225097657	1720.317260742188	-1146.247314453125	-314.1988220214844	1707.9375	-1001.953125	-380.1400146484376	1541.989135742188	-1066.5947265625	-378.2835388183594	1262.992553710938	-1026.814575195313	-237.1771850585938	1520.823486328125	-1082.677001953125	-311.5184936523438	1555.692260742188	-1218.6083984375	-155.5915985107422	1496.34130859375	-1356.184448242188	-127.2005691528321	1530.143920898438	-1330.803955078125	-87.11331939697267	1504.601806640625	-1367.235717773438	-24.76889801025391	1507.63134765625	-1371.249755859375	-13.20162105560303	1433.578979492188	-1348.494995117188	nan	nan	nan	271.1637573242188	1523.968139648438	-1337.102172851563	330.7667541503907	1543.681762695313	-1246.033813476563	-277.8044433593751	1560.1279296875	-940.2503051757815	-118.4424209594727	1534.554077148438	-826.1689453125002	-84.23746490478517	1540.0478515625	-859.988464355469	-50.59815979003908	1528.562744140625	-810.9221191406252	22.72172355651856	1523.410766601563	-802.8712158203127	25.72153854370118	1444.462158203125	-816.269226074219	297.2888488769532	1507.977905273438	-892.2200317382815	309.6690979003907	1524.649536132813	-824.018005371094	376.9948120117188	1542.525024414063	-900.5653076171877	-223.5154266357422	1054.2431640625	-1120.894287109375	-225.706039428711	1093.936157226563	-874.4351196289065	-390.7088012695314	1132.815063476563	-1003.940307617188	-406.2001953125001	1101.614501953125	-1027.767456054688	-404.5794372558595	1107.395263671875	-971.3546142578127	-265.3066711425782	737.5724487304689	-1151.265014648438	-234.8287811279297	658.4602050781251	-1139.768310546875	-188.8707733154297	665.1457519531251	-1118.567749023438	-262.6007690429688	610.9024658203126	-1117.44287109375	-257.6380004882813	551.2495117187501	-1107.0478515625	-249.1940155029297	550.1594238281251	-988.387634277344	-244.245101928711	364.5767211914063	-1024.162719726563	-292.0033264160157	324.3828125000001	-1086.894287109375	-256.3491210937501	317.0783386230469	-1057.099731445313	-280.7817993164063	242.4235076904297	-1023.875183105469	-381.3130187988282	120.3483352661133	-1036.579345703125	-341.6088256835938	134.2583923339844	-965.778015136719	-432.3574829101564	101.6777038574219	-981.0701293945315	-234.1850738525391	46.01903915405274	-975.7285156250002	-226.0108337402344	44.50629806518555	-1026.020141601563	-271.3820190429688	34.50414276123048	-1072.732666015625	-262.7375793457032	826.828308105469	-785.5158691406252	-225.0071563720704	771.9658813476565	-774.5340576171877	-192.0441284179688	772.7813720703127	-781.0206298828127	-253.2641143798829	690.6655883789064	-776.546081542969	-252.1716766357422	584.6193237304689	-781.2583007812502	-255.2385559082032	569.2431030273439	-894.5122680664065	-377.9192504882813	465.7661743164064	-798.9558105468752	-483.0707092285157	509.606903076172	-773.3731079101565	-461.3678283691407	466.8889160156251	-777.2947998046877	-502.7318420410157	435.4534606933595	-806.8804931640627	-634.8073730468751	453.125701904297	-787.0090942382815	-617.1959838867189	416.9062805175782	-860.0791625976565	-668.0087280273439	500.0227355957032	-861.1696777343752	-686.2175903320314	286.2538146972657	-836.6071777343752	-691.6707763671876	290.3883972167969	-789.136901855469	-719.2174072265626	336.5095825195313	-754.8816528320314	nan	nan	nan	nan	nan	nan	
1345	6.72	-164.867904663086	1761.295043945313	-1087.735717773438	-323.3787536621094	1720.199951171875	-1146.153198242188	-314.4275512695313	1707.836547851563	-1001.848327636719	-380.4252624511719	1541.852661132813	-1066.502319335938	-378.2350463867188	1262.823852539063	-1026.69677734375	-237.3485870361329	1520.727416992188	-1082.59912109375	-311.7522888183594	1555.4873046875	-1218.55078125	-155.6294403076172	1496.134521484375	-1356.066040039063	-127.3964767456055	1529.9794921875	-1330.687744140625	-87.29668426513673	1504.334350585938	-1367.11328125	-25.20032501220704	1507.707397460938	-1371.242309570313	-13.33556842803955	1433.423828125	-1348.3310546875	nan	nan	nan	270.9971008300782	1523.838012695313	-1336.86181640625	330.5426025390626	1543.679077148438	-1245.822021484375	-278.1188964843751	1560.018676757813	-940.1029052734377	-118.6356658935547	1534.408447265625	-826.054870605469	-84.4945526123047	1539.867553710938	-859.836853027344	-50.8324661254883	1528.446533203125	-810.8023681640627	22.40182876586914	1523.3076171875	-802.7247314453127	25.49286079406739	1444.347412109375	-816.0808105468752	297.2881774902344	1507.892822265625	-892.1318359375002	309.4528503417969	1524.546875	-823.9772949218752	376.6782531738282	1542.075805664063	-900.2258300781252	-223.2956695556641	1054.208740234375	-1120.789184570313	-225.6084136962891	1093.7412109375	-874.3133544921877	-390.6033630371095	1132.629638671875	-1003.737182617188	-406.0854797363282	1101.4189453125	-1027.679565429688	-404.4771423339845	1107.17529296875	-971.2273559570315	-265.1798095703126	737.5533447265626	-1151.406982421875	-234.7383575439454	658.3960571289064	-1139.939575195313	-188.7556762695313	665.1325683593751	-1118.764038085938	-262.4684753417969	610.8463745117189	-1117.562866210938	-257.4862365722657	551.1851806640626	-1107.18115234375	-248.9546203613282	549.9996948242189	-988.663269042969	-244.1426696777344	364.4309387207032	-1024.324096679688	-292.0276184082032	324.3103332519532	-1087.059692382813	-256.4550476074219	316.9819946289063	-1057.229736328125	-280.7073364257813	242.2646179199219	-1024.114990234375	-381.3516235351563	120.3376770019532	-1036.664794921875	-341.5733947753907	134.2883911132813	-965.8752441406252	-432.3743286132814	101.7168045043946	-981.0767822265627	-234.1379852294922	46.04731750488282	-975.8348388671877	-226.0101165771485	44.55853271484376	-1026.088989257813	-271.3653259277344	34.47725296020509	-1072.772216796875	-262.4446716308594	826.7093505859377	-785.3602294921877	-224.6987762451172	771.8255615234377	-774.4126586914065	-191.5574645996094	772.6409301757815	-780.9193115234377	-252.9193115234376	690.5876464843751	-776.3399658203127	-251.7951812744141	584.6056518554689	-781.0884399414065	-254.9208068847657	569.1631469726564	-894.3518066406252	-377.4540710449219	465.5284423828126	-798.7661743164065	-482.684539794922	509.389373779297	-773.2249145507815	-460.7982788085939	466.6045532226564	-777.0991821289065	-502.1857910156251	435.1845092773439	-806.8318481445315	-634.3419189453126	452.7923583984376	-786.7402343750002	-616.7139282226564	416.5850830078126	-859.920104980469	-667.5928344726564	499.8184509277345	-861.058044433594	-685.7675170898439	285.6853942871094	-836.3806152343752	-691.0889282226564	289.8747253417969	-789.0213012695315	-718.3936767578126	336.2885131835938	-754.5762939453126	nan	nan	nan	nan	nan	nan	
1346	6.725000000000001	-165.0404968261719	1761.161987304688	-1087.626953125	-323.5249633789063	1720.03564453125	-1146.131591796875	-314.7331848144532	1707.65283203125	-1001.814514160156	-380.6729125976563	1541.5498046875	-1066.383666992188	-378.3011779785157	1262.630859375	-1026.499755859375	-237.5277404785157	1520.583740234375	-1082.524047851563	-311.9855041503907	1555.192626953125	-1218.505126953125	-155.7220916748047	1495.880493164063	-1355.885986328125	-127.4928436279297	1529.815551757813	-1330.53076171875	-87.4257278442383	1504.123413085938	-1366.988647460938	-25.00086402893067	1507.223022460938	-1370.972778320313	-13.45960998535157	1433.230834960938	-1348.05517578125	nan	nan	nan	270.8704223632813	1523.692138671875	-1336.6123046875	330.4100952148438	1543.602783203125	-1245.67529296875	-278.5683593750001	1559.96142578125	-939.9427490234377	-118.875358581543	1534.197631835938	-825.8630371093752	-84.75496673583986	1539.763916015625	-859.713806152344	-50.98731613159181	1528.406005859375	-810.7603759765627	22.01818656921387	1523.19482421875	-802.562683105469	25.25786972045899	1444.182373046875	-815.9622802734377	297.0232238769532	1507.781372070313	-891.9666748046877	309.1650695800782	1524.503173828125	-823.7678222656252	376.4161071777344	1541.9814453125	-900.1716308593752	-223.1333618164063	1054.179077148438	-1120.667724609375	-225.4983215332032	1093.592651367188	-874.153747558594	-390.4850158691407	1132.437622070313	-1003.601379394531	-405.9521484375001	1101.267822265625	-1027.58203125	-404.4036254882814	1106.982299804688	-971.116149902344	-265.0383300781251	737.5692749023439	-1151.412841796875	-234.5738067626954	658.4431762695314	-1140.107788085938	-188.56787109375	665.0396118164064	-1118.931762695313	-262.2926635742188	610.8082885742189	-1117.7314453125	-257.3095703125001	551.0744628906251	-1107.251098632813	-248.1674499511719	549.4916992187501	-988.7584228515627	-244.0153808593751	364.3373107910157	-1024.494018554688	-292.1067199707032	324.3197937011719	-1087.158569335938	-256.4664001464844	316.8786926269532	-1057.482299804688	-280.5831298828126	242.1933898925782	-1024.279296875	-381.2726745605469	120.3333969116211	-1036.703979492188	-341.5289001464844	134.2952270507813	-965.9266357421877	-432.3786010742189	101.7369689941407	-981.1527099609377	-234.1884155273438	46.00709915161134	-975.8135986328127	-226.0382385253907	44.51803588867188	-1026.076782226563	-271.3366699218751	34.45276260375977	-1072.839233398438	-262.2192077636719	826.5945434570315	-785.1902465820315	-224.4338531494141	771.8440551757815	-774.292907714844	-191.2807769775391	772.4121704101565	-780.9027099609377	-252.5452728271485	690.4155273437501	-776.1326904296877	-251.3647460937501	584.5328369140626	-780.951843261719	-254.5329284667969	568.9896850585939	-894.1235351562502	-376.9585876464844	465.239959716797	-798.5576782226565	-482.2300109863282	509.0827941894532	-773.196472167969	-460.1965332031251	466.4094543457032	-776.9982910156252	-501.6992797851564	434.8764038085939	-806.6336669921877	-633.9444580078126	452.5514526367189	-786.445251464844	-616.1751708984376	416.1819763183595	-859.8065185546877	-667.0965576171876	499.2983398437501	-860.7932739257815	-685.2408447265626	284.8590698242188	-836.0859375000002	-690.2624511718751	288.8733825683594	-788.4741210937502	-717.7188110351564	335.9326477050782	-754.3432617187501	nan	nan	nan	nan	nan	nan	
1347	6.73	-165.3193664550782	1761.023803710938	-1087.632446289063	-323.6687927246094	1719.847900390625	-1146.07421875	-314.9736328125001	1707.5126953125	-1001.683898925781	-380.8679199218751	1541.382934570313	-1066.319213867188	-378.2308349609376	1262.4296875	-1026.354858398438	-237.6763916015626	1520.524169921875	-1082.438598632813	-312.1263427734376	1555.00634765625	-1218.4423828125	-155.8164520263672	1495.631591796875	-1355.718872070313	-127.6851196289063	1529.606201171875	-1330.375732421875	-87.54996490478517	1503.880493164063	-1366.846923828125	-25.52519035339356	1507.318969726563	-1370.890869140625	-13.54236888885498	1432.996459960938	-1347.919311523438	nan	nan	nan	270.6080322265626	1523.557495117188	-1336.359985351563	330.4633178710938	1543.649658203125	-1245.527099609375	-278.9458312988282	1559.901611328125	-939.7984619140627	-119.0252990722657	1534.191162109375	-825.808044433594	-84.9801483154297	1539.616821289063	-859.561950683594	-51.31663894653322	1528.244995117188	-810.5122070312502	21.69146347045899	1523.047119140625	-802.4028930664065	24.96353149414063	1444.107055664063	-815.8164062500002	296.9422302246094	1507.664916992188	-891.873962402344	308.8868713378907	1524.380004882813	-823.6524658203127	376.1939086914063	1542.080322265625	-900.2744750976565	-222.9994812011719	1054.143432617188	-1120.562133789063	-225.4376983642579	1093.522705078125	-874.021911621094	-390.404266357422	1132.272827148438	-1003.474060058594	-405.7628479003907	1101.114013671875	-1027.459838867188	-404.3016662597657	1106.729370117188	-971.0144042968752	-264.8105773925782	737.5230712890626	-1151.472290039063	-234.3437042236329	658.4502563476564	-1140.21240234375	-188.3418884277344	665.0347900390626	-1119.020629882813	-262.0710144042969	610.7167358398439	-1117.879272460938	-257.0779724121094	550.9588012695314	-1107.355590820313	-248.0717163085938	549.6914062500001	-989.0010375976565	-243.8168487548829	364.2884521484376	-1024.704711914063	-291.7342224121094	324.6891479492188	-1087.154663085938	-256.1777038574219	316.7159729003907	-1057.543090820313	-280.3940124511719	242.1377716064454	-1024.462280273438	-381.2007751464844	120.3002700805664	-1036.698608398438	-341.5263061523438	134.3117218017578	-965.8994140625002	-432.3523559570314	101.7659530639649	-981.1131591796877	-234.1649780273438	46.05894470214844	-975.8670654296877	-226.0458526611329	44.50785446166993	-1026.06982421875	-271.3191528320313	34.43806838989259	-1072.860717773438	-262.0156555175782	826.5090942382815	-785.0595703125002	-224.1053771972657	771.7448730468752	-774.093688964844	-190.9981384277344	772.2781372070315	-780.7833251953127	-252.2538146972657	690.3790893554689	-775.9736938476565	-250.8837127685547	584.4495239257814	-780.847595214844	-254.0338592529297	568.8481445312501	-893.9511718750002	-376.4591674804688	465.0496520996095	-798.537048339844	-481.6613159179689	508.7727966308595	-773.043395996094	-459.6947021484376	466.4261779785157	-776.837341308594	-501.1260375976564	434.6611328125001	-806.4053955078127	-633.6878662109376	451.8988647460939	-786.5325317382815	-615.5650024414064	415.8265686035157	-859.6726074218752	-666.7645874023439	498.8915405273439	-860.5541992187502	-684.1419677734376	284.7711181640626	-836.037048339844	-689.8111572265626	289.1739501953126	-788.586853027344	-717.2275390625001	334.8959045410157	-754.2022094726564	nan	nan	nan	nan	nan	nan	
